<svg width="23" height="13" viewBox="0 0 23 13" fill="none" xmlns="http://www.w3.org/2000/svg">
<path fill-rule="evenodd" clip-rule="evenodd" d="M10.8738 12.7273C10.9559 12.8137 11.0535 12.8823 11.161 12.9291C11.2685 12.9759 11.3837 13 11.5 13C11.6163 13 11.7315 12.9759 11.839 12.9291C11.9465 12.8823 12.0441 12.8137 12.1262 12.7273L22.7406 1.58683C22.9067 1.4125 23 1.17607 23 0.929542C23 0.683012 22.9067 0.44658 22.7406 0.272257C22.5745 0.0979338 22.3492 0 22.1144 0C21.8795 0 21.6542 0.0979338 21.4881 0.272257L11.5 10.7573L1.51189 0.272257C1.3458 0.0979338 1.12053 0 0.885647 0C0.650759 0 0.425491 0.0979338 0.2594 0.272257C0.093309 0.44658 0 0.683012 0 0.929542C0 1.17607 0.093309 1.4125 0.2594 1.58683L10.8738 12.7273Z" fill="#1A1A1A"/>
</svg>
