<?xml version="1.0" encoding="utf-8"?>
<!-- Generator: Adobe Illustrator 24.3.0, SVG Export Plug-In . SVG Version: 6.00 Build 0)  -->
<svg version="1.1" id="Layer_1" xmlns="http://www.w3.org/2000/svg" xmlns:xlink="http://www.w3.org/1999/xlink" x="0px" y="0px"
	 viewBox="0 0 570 131" style="enable-background:new 0 0 570 131;" xml:space="preserve">
<style type="text/css">
	.st0{fill-rule:evenodd;clip-rule:evenodd;fill:#954898;}
</style>
<desc>Created with Sketch.</desc>
<g id="Page-1">
	<g id="_x31_920" transform="translate(-657.000000, -380.000000)">
		<g id="logo" transform="translate(657.000000, 380.000000)">
			<path id="Fill-1" class="st0" d="M60,38.4v74.5c0,1.7,1.4,3.1,3,3.1h10c1.7,0,3-1.4,3-3.1V26.4c0-6.1,2.8-8.4,7.2-8.4
				c4.5,0,7.6,2.2,7.6,8.2v86.7c0,1.7,1.4,3.1,3,3.1h10c1.7,0,3-1.4,3-3.1V26.4c0-6,3.4-8.4,7.8-8.4c4.5,0,7,2.3,7,8.4v86.5
				c0,1.7,1.4,3.1,3,3.1H135c1.7,0,3-1.4,3-3.1V37.3c0-17-7.8-22.3-21.2-22.3c-6.1,0-13.8,2.5-17,8.1C96.9,17.3,89.5,15,83.3,15
				C69.9,15,60,21.3,60,38.4"/>
			<g id="Group-5">
				<g id="Clip-4">
				</g>
				<path id="Fill-3" class="st0" d="M11.7,115.9C8,109.6,5.1,102.1,3,93.6c-2-8.5-3-17.8-3-27.8S1,46.6,3,38s4.9-16.1,8.7-22.4
					C15.4,9.2,19.9,4.1,25,0.5l9.2,10.9c-3.9,2.7-7.3,6.7-10.2,11.9s-5.2,11.5-6.8,18.8c-1.6,7.3-2.4,15.2-2.4,23.7
					c0,8.6,0.8,16.5,2.4,23.8s3.9,13.5,6.8,18.7s6.3,9.2,10.2,11.9L25,131C19.9,127.3,15.4,122.3,11.7,115.9"/>
			</g>
			<path id="Fill-6" class="st0" d="M165,119.1c3.9-2.7,7.3-6.6,10.2-11.8c2.9-5.2,5.2-11.4,6.8-18.6s2.4-15.1,2.4-23.7
				c0-8.5-0.8-16.4-2.4-23.6c-1.6-7.2-3.9-13.5-6.8-18.7c-2.9-5.2-6.3-9.2-10.2-11.9L174.1,0c5.1,3.6,9.5,8.6,13.2,15
				s6.6,13.8,8.6,22.4c2,8.5,3,17.7,3,27.6c0,10-1,19.2-3,27.7s-4.9,15.9-8.6,22.2c-3.7,6.3-8.1,11.3-13.2,15L165,119.1z"/>
			<path id="Fill-8" class="st0" d="M249.7,53.5c-2.9-1-5.5-2.4-7.7-4l4.3-6.8c1.7,1.4,3.7,2.6,6,3.5s4.6,1.4,6.8,1.4
				s3.9-0.5,5.2-1.4c1.3-0.9,1.9-2.2,1.9-3.9c0-1.2-0.4-2.2-1.2-2.9c-0.8-0.8-1.7-1.4-2.9-1.8c-1.1-0.5-2.8-1-5.1-1.7
				c-2.8-0.9-5-1.7-6.7-2.5s-3.2-2-4.4-3.6s-1.9-3.7-1.9-6.3c0-2.7,0.7-5,2.1-6.9c1.4-1.9,3.3-3.3,5.6-4.2s4.9-1.4,7.8-1.4
				c2.5,0,5.1,0.4,7.5,1.1c2.5,0.7,4.7,1.8,6.8,3.2l-4.4,6.3c-1.6-1.1-3.3-2-5.1-2.6c-1.8-0.6-3.6-0.9-5.2-0.9c-2,0-3.5,0.4-4.7,1.2
				c-1.2,0.8-1.8,1.9-1.8,3.4c0,1,0.4,1.9,1.1,2.6c0.7,0.7,1.7,1.3,2.8,1.7c1.1,0.4,2.7,1,4.6,1.5l1.4,0.4c2.5,0.7,4.6,1.6,6.3,2.5
				c1.7,0.9,3.2,2.2,4.3,3.8c1.2,1.7,1.8,3.8,1.8,6.4c0,2.8-0.7,5.2-2,7.2c-1.4,2-3.2,3.5-5.6,4.5s-5.2,1.5-8.3,1.5
				C255.7,55,252.7,54.5,249.7,53.5"/>
			<path id="Fill-10" class="st0" d="M292.7,53.1c-2.8-1.2-4.9-3.1-6.4-5.4c-1.5-2.4-2.3-5.2-2.3-8.5V12h8.9v26.8
				c0,2.7,0.9,4.8,2.6,6.2s4.1,2.1,6.9,2.1c2.9,0,5.2-0.7,6.9-2.1c1.7-1.4,2.6-3.5,2.6-6.2V12h8.9v27.2c0,3.3-0.8,6.1-2.3,8.5
				s-3.6,4.2-6.4,5.4S306,55,302.3,55C298.7,55,295.5,54.4,292.7,53.1"/>
			<path id="Fill-12" class="st0" d="M335.7,53.5c-2.9-1-5.5-2.4-7.7-4l4.3-6.8c1.7,1.4,3.7,2.6,6,3.5s4.6,1.4,6.8,1.4
				c2.2,0,3.9-0.5,5.2-1.4c1.3-0.9,1.9-2.2,1.9-3.9c0-1.2-0.4-2.2-1.2-2.9c-0.8-0.8-1.7-1.4-2.9-1.8c-1.1-0.5-2.8-1-5.1-1.7
				c-2.8-0.9-5-1.7-6.7-2.5s-3.2-2-4.4-3.6c-1.2-1.6-1.9-3.7-1.9-6.3c0-2.7,0.7-5,2.1-6.9s3.3-3.3,5.6-4.2c2.3-0.9,4.9-1.4,7.8-1.4
				c2.5,0,5.1,0.4,7.5,1.1c2.5,0.7,4.7,1.8,6.8,3.2l-4.4,6.3c-1.6-1.1-3.3-2-5.1-2.6c-1.8-0.6-3.6-0.9-5.2-0.9c-2,0-3.5,0.4-4.7,1.2
				c-1.2,0.8-1.8,1.9-1.8,3.4c0,1,0.4,1.9,1.1,2.6s1.7,1.3,2.8,1.7c1.1,0.4,2.7,1,4.6,1.5l1.4,0.4c2.5,0.7,4.6,1.6,6.3,2.5
				c1.7,0.9,3.2,2.2,4.3,3.8c1.2,1.7,1.8,3.8,1.8,6.4c0,2.8-0.7,5.2-2,7.2c-1.4,2-3.2,3.5-5.6,4.5s-5.2,1.5-8.3,1.5
				C341.7,55,338.7,54.5,335.7,53.5"/>
			<g id="Group-16" transform="translate(364.000000, 0.000000)">
				<g id="Clip-15">
				</g>
				<path id="Fill-14" class="st0" d="M16.5,19v22.1c0,2,0.5,3.5,1.6,4.6s2.5,1.6,4.3,1.6h4.7v7.2h-6.5c-2.7,0-5-0.5-6.9-1.4
					c-2-1-3.5-2.4-4.6-4.2C8,47,7.5,44.8,7.5,42.1V19h-7v-6.8h7V0.5h9.1v11.7h10.6V19H16.5z"/>
			</g>
			<path id="Fill-17" class="st0" d="M410.9,20.8c-2.4,1.8-4,4.3-4.8,7.4h25.8c-0.4-2-1.2-3.8-2.4-5.3c-1.2-1.5-2.7-2.7-4.4-3.5
				c-1.8-0.8-3.7-1.2-5.8-1.2C416,18.1,413.2,19,410.9,20.8z M440.9,34.3h-35.3c0.1,2.6,0.8,4.9,2.1,6.9c1.3,2,2.9,3.6,5,4.7
				c2,1.1,4.3,1.7,6.7,1.7c2.5,0,4.8-0.6,6.9-1.7c2.1-1.1,3.8-2.8,5.1-4.8l7.2,3.1c-1.8,3.4-4.4,6.1-7.8,8
				c-3.3,1.9-7.1,2.9-11.3,2.9c-4.3,0-8.1-1-11.5-2.9s-6.1-4.6-8-8c-2-3.4-3-7.1-3-11.2c0-4,1-7.7,2.9-11.1s4.6-6,8-8
				s7.2-2.9,11.3-2.9c4,0,7.6,0.9,10.9,2.8c3.3,1.8,5.9,4.4,7.9,7.7c1.9,3.3,3,7,3,11.1L440.9,34.3z"/>
			<path id="Fill-19" class="st0" d="M479.3,13c2.4,1.3,4.3,3.3,5.6,5.9c1.4,2.6,2,5.8,2,9.5V54h-9.1V29.6c0-7.3-3.2-10.9-9.6-10.9
				c-2,0-3.7,0.4-5.3,1.3c-1.5,0.8-2.8,2.1-3.7,3.8c-0.9,1.7-1.3,3.7-1.3,6.2v24H449V11.8h9.1v6c1.4-2.2,3.2-3.9,5.4-5
				c2.2-1.2,4.7-1.8,7.5-1.8C474.1,11,476.9,11.6,479.3,13"/>
			<g id="Group-23" transform="translate(493.000000, 0.000000)">
				<g id="Clip-22">
				</g>
				<path id="Fill-21" class="st0" d="M17,19v22.1c0,2,0.5,3.5,1.6,4.6s2.5,1.6,4.3,1.6h4.7v7.2H21c-2.7,0-5-0.5-6.9-1.4
					c-2-1-3.5-2.4-4.6-4.2c-1.1-1.9-1.6-4.1-1.6-6.7V19h-7v-6.8h7V0.5H17v11.7h10.6V19H17z"/>
			</g>
			<path id="Fill-24" class="st0" d="M554.8,45.2c2.1-1.2,3.8-2.9,5-5.1c1.2-2.2,1.8-4.5,1.8-7.2c0-2.6-0.6-5-1.8-7.1s-2.9-3.8-5-5
				s-4.5-1.8-7-1.8c-2.6,0-4.9,0.6-7,1.8c-2.1,1.2-3.8,2.9-5.1,5s-1.9,4.5-1.9,7.1s0.6,5,1.9,7.2c1.2,2.2,2.9,3.8,5.1,5.1
				c2.1,1.2,4.5,1.8,7,1.8C550.4,47.1,552.7,46.5,554.8,45.2 M535.5,52.1c-3.2-1.9-5.7-4.6-7.6-8C526,40.7,525,37,525,33
				s0.9-7.7,2.9-11.1c1.9-3.4,4.4-6,7.6-8c3.2-1.9,6.6-2.9,10.4-2.9c3.2,0,6.2,0.6,8.8,1.9s4.8,3,6.5,5.2V12h8.9v42.2h-8.9V48
				c-1.7,2.2-3.9,3.9-6.5,5.1c-2.6,1.2-5.5,1.9-8.8,1.9C542.1,55,538.7,54,535.5,52.1"/>
			<g id="Group-28" transform="translate(243.000000, 67.000000)">
				<g id="Clip-27">
				</g>
				<path id="Fill-26" class="st0" d="M30.2,53.2c2.1-1.2,3.8-2.9,5.1-5.1c1.3-2.2,1.9-4.5,1.9-7.2c0-2.6-0.6-5-1.9-7.1
					c-1.3-2.1-3-3.8-5.1-5S25.7,27,23.1,27s-4.9,0.6-7.1,1.8c-2.1,1.2-3.8,2.9-5.1,5C9.8,36,9.2,38.3,9.2,41c0,2.6,0.6,5,1.8,7.2
					s2.9,3.8,5.1,5.1c2.1,1.2,4.5,1.8,7.1,1.8S28.1,54.4,30.2,53.2 M16.3,61.1c-2.6-1.2-4.8-2.9-6.5-5.1v6.1h-9V0.9h8.9v25.2
					c1.7-2.2,3.9-3.9,6.5-5.2S21.7,19,25,19c3.7,0,7.2,1,10.4,2.9s5.8,4.6,7.7,8S46,37,46,41c0,4.1-1,7.8-2.9,11.2s-4.5,6-7.7,8
					C32.3,62,28.8,63,25.1,63C21.8,63,18.9,62.4,16.3,61.1"/>
			</g>
			<path id="Fill-29" class="st0" d="M298.1,130h8.8V87.1h-8.8V130z M299.8,77.5c-0.9-0.5-1.5-1.2-2-2c-0.5-0.9-0.7-1.8-0.7-2.8
				c0-1.1,0.2-2,0.7-2.9c0.5-0.8,1.2-1.5,2-2s1.8-0.7,2.8-0.7s1.9,0.2,2.7,0.7c0.8,0.5,1.5,1.2,2,2c0.5,0.9,0.7,1.8,0.7,2.9
				c0,1-0.2,1.9-0.7,2.8s-1.2,1.5-2,2s-1.7,0.8-2.7,0.8C301.5,78.2,300.6,78,299.8,77.5z"/>
			<polygon id="Fill-31" class="st0" points="321,130 330,130 330,68 321,68 			"/>
			<path id="Fill-32" class="st0" d="M342.1,130h8.7V87.1h-8.7V130z M343.8,77.5c-0.9-0.5-1.5-1.2-2-2c-0.5-0.9-0.7-1.8-0.7-2.8
				c0-1.1,0.2-2,0.7-2.9c0.5-0.8,1.2-1.5,2-2s1.8-0.7,2.8-0.7s1.9,0.2,2.7,0.7c0.8,0.5,1.5,1.2,2,2c0.5,0.9,0.7,1.8,0.7,2.9
				c0,1-0.3,1.9-0.7,2.8c-0.5,0.9-1.2,1.5-2,2s-1.7,0.8-2.7,0.8C345.5,78.2,344.6,78,343.8,77.5z"/>
			<path id="Fill-33" class="st0" d="M390.8,121.1c2.1-1.2,3.8-3,5-5.1c1.2-2.2,1.8-4.6,1.8-7.3c0-2.7-0.6-5.1-1.8-7.2
				c-1.2-2.2-2.9-3.9-5-5.1s-4.5-1.9-7-1.9c-2.6,0-4.9,0.6-7,1.9c-2.1,1.2-3.8,2.9-5.1,5.1c-1.3,2.2-1.9,4.6-1.9,7.2
				c0,2.7,0.6,5.1,1.9,7.3c1.2,2.2,2.9,3.9,5.1,5.1c2.1,1.2,4.5,1.9,7,1.9C386.4,122.9,388.7,122.3,390.8,121.1 M371.5,128
				c-3.2-2-5.7-4.7-7.6-8.1s-2.9-7.2-2.9-11.3c0-4.1,0.9-7.9,2.9-11.3c1.9-3.4,4.4-6.1,7.6-8.1s6.6-3,10.4-3c3.2,0,6.2,0.6,8.8,1.9
				c2.6,1.3,4.7,3,6.5,5.3V67.9h8.9V130h-8.9v-6.2c-1.7,2.2-3.9,3.9-6.5,5.2c-2.6,1.3-5.5,1.9-8.8,1.9
				C378.1,131,374.7,130,371.5,128"/>
			<path id="Fill-34" class="st0" d="M445.8,120.2c2.1-1.2,3.8-2.9,5-5.1s1.8-4.5,1.8-7.2c0-2.6-0.6-5-1.8-7.1c-1.2-2.1-2.9-3.8-5-5
				s-4.5-1.8-7-1.8c-2.6,0-4.9,0.6-7,1.8c-2.1,1.2-3.8,2.9-5.1,5c-1.2,2.1-1.9,4.5-1.9,7.1s0.6,5,1.9,7.2c1.2,2.2,2.9,3.8,5.1,5.1
				c2.1,1.2,4.5,1.8,7,1.8C441.4,122.1,443.7,121.5,445.8,120.2 M426.5,127.1c-3.2-1.9-5.7-4.6-7.6-8S416,112,416,108
				s0.9-7.7,2.9-11.1c1.9-3.4,4.4-6,7.6-8c3.2-1.9,6.6-2.9,10.4-2.9c3.2,0,6.2,0.6,8.8,1.9c2.6,1.2,4.7,3,6.5,5.2V87h8.9v42.2h-8.9
				V123c-1.7,2.2-3.9,3.9-6.5,5.1c-2.6,1.2-5.5,1.9-8.8,1.9C433.1,130,429.7,129,426.5,127.1"/>
			<path id="Fill-35" class="st0" d="M500.8,121.1c2.1-1.2,3.8-3,5-5.1c1.2-2.2,1.8-4.6,1.8-7.3c0-2.7-0.6-5.1-1.8-7.2
				c-1.2-2.2-2.9-3.9-5-5.1s-4.5-1.9-7-1.9c-2.6,0-4.9,0.6-7,1.9c-2.1,1.2-3.8,2.9-5.1,5.1c-1.2,2.2-1.9,4.6-1.9,7.2
				c0,2.7,0.6,5.1,1.9,7.3c1.2,2.2,2.9,3.9,5.1,5.1c2.1,1.2,4.5,1.9,7,1.9C496.4,122.9,498.7,122.3,500.8,121.1 M481.5,128
				c-3.2-2-5.7-4.7-7.6-8.1s-2.8-7.2-2.8-11.3c0-4.1,0.9-7.9,2.8-11.3s4.4-6.1,7.6-8.1s6.6-3,10.4-3c3.2,0,6.2,0.6,8.8,1.9
				c2.6,1.3,4.7,3,6.5,5.3V67.9h8.9V130h-8.9v-6.2c-1.7,2.2-3.9,3.9-6.5,5.2c-2.6,1.3-5.5,1.9-8.8,1.9
				C488.1,131,484.7,130,481.5,128"/>
			<path id="Fill-36" class="st0" d="M538.9,95.8c-2.4,1.8-4,4.3-4.8,7.4h25.8c-0.4-2-1.2-3.8-2.4-5.3s-2.7-2.7-4.4-3.5
				c-1.8-0.8-3.7-1.2-5.8-1.2C544,93.1,541.2,94,538.9,95.8z M568.9,109.3h-35.4c0.1,2.6,0.8,4.9,2.1,6.9s2.9,3.6,5,4.7
				c2,1.1,4.3,1.7,6.7,1.7c2.5,0,4.8-0.6,6.9-1.7c2.1-1.1,3.8-2.8,5.1-4.8l7.2,3.1c-1.8,3.4-4.4,6.1-7.8,8
				c-3.3,1.9-7.1,2.9-11.3,2.9c-4.3,0-8.1-1-11.5-2.9s-6.1-4.6-8-8s-2.9-7.1-2.9-11.1s1-7.7,2.9-11.1s4.6-6,8-8s7.2-2.9,11.3-2.9
				c4,0,7.6,0.9,10.9,2.8c3.3,1.8,5.9,4.4,7.9,7.7c1.9,3.3,3,7,3,11.1L568.9,109.3z"/>
		</g>
	</g>
</g>
</svg>
