<?xml version="1.0" encoding="utf-8"?>
<!-- Generator: Adobe Illustrator 22.0.1, SVG Export Plug-In . SVG Version: 6.00 Build 0)  -->
<svg version="1.1" id="Camada_1" xmlns="http://www.w3.org/2000/svg" xmlns:xlink="http://www.w3.org/1999/xlink" x="0px" y="0px"
	 viewBox="0 0 400 129" style="enable-background:new 0 0 400 129;" xml:space="preserve">
<style type="text/css">
	.st0{fill-rule:evenodd;clip-rule:evenodd;fill:#232112;}
</style>
<g>
	<path class="st0" d="M80.5,68c3.4-6.8,3.4-9.2-0.7-14.4L56.5,24.9c-1.9-2.4-3-3-7.2-3c-1.5,0-4.4,0-4.4,0l14.5,26.8
		c1,1.8,2.8,3.9,0,7l-46.8,51.6h32.6c14.1,0,19.1-6.5,23.6-15.6C68.7,91.6,80.5,68,80.5,68z"/>
	<path class="st0" d="M103.3,90.3l8.6-18.5c1.1-2.4,4.1-4.3,6.7-4.3c0,0,18.2,0,22.1,0c4.5,0,8.5-2.6,9.8-5.3
		c0.4-0.8,0.8-1.8,0.8-1.8h-46.2c-5.8,0-11.2,3.8-13.5,8.5l-10,21.2H103.3z M339.3,90.3l8.6-18.5c1.1-2.4,4.1-4.3,6.7-4.3
		c0,0,18.2,0,22.1,0c4.5,0,8.5-2.6,9.8-5.3c0.4-0.8,0.8-1.8,0.8-1.8h-46.2c-5.8,0-11.2,3.8-13.5,8.5l-10,21.2H339.3z M316.6,78.6
		L316.6,78.6l-47,0l-1.8,3.9l44.8,0c0,0-0.6,1.2-1.5,3.2c-0.9,1.9-4.2,4.6-9.2,4.6c-4.9,0-31.5,0-42,0c-10.8,0-11.9-5.1-10.3-8.4
		c1-2.1,6-12.7,6-12.7c2.4-5.3,7.8-8.7,13.9-8.7c0,0,36.6,0,43.7,0c7.1,0,10.1,4,7.8,9 M276.2,66.9c-1,0-2.3,0.8-2.7,1.7l-1.8,3.8
		l29,0c1,0,2.3-0.8,2.7-1.7l1.8-3.8L276.2,66.9z M163.8,90.3l13.9-29.7l-10.4,0c-6.8,0-11.6,4-13.9,8.7l-9.9,21L163.8,90.3z
		 M185.4,90.3c-7.8,0-12.6-3.3-10.1-8.5c0,0,4.9-10.5,5.9-12.6c1.6-3.4,5.8-8.7,14.4-8.7c10.4,0,35.8,0,35.8,0s0.9-2,2.3-5
		c1.4-3,6-5.5,11.2-5.5h12.3c0,0-15.4,32.8-16.6,35.5c-1.3,2.6-5.3,4.8-9,4.8H185.4z M193.6,82.5h22.3c3.6,0,6.4-1.9,7.5-4.2
		l4.9-10.2l-22.5,0c-3.2,0-6.3,1.9-7.4,4.2L193.6,82.5"/>
</g>
</svg>
